# xmcd CD database file
#
# Track frame offsets:
#	150
#	13975
#	29707
#	40817
#	48865
#	56901
#	69320
#	86662
#	98530
#	115357
#	126606
#	141844
#	163594
#	177637
#	198970
#	217115
#	235155
#	248953
#	269252
#	280282
#
# Disc length: 3902 seconds
#
# Revision: 0
# Processed by: cddbd v1.5.1PL0 Copyright (c) Steve Scherf et al.
# Submitted via: CDex 1.51
#
DISCID=350f3c14
DTITLE=Fátima Marques - As 20 Mais
DYEAR=1900
DGENRE=Country
TTITLE0=Meu Refugio
TTITLE1=Memorias
TTITLE2=Fracasso
TTITLE3=Negue
TTITLE4=Maluco Beleza
TTITLE5=Sete Semanas de Amor
TTITLE6=Agora Estou Sozinho
TTITLE7=Gostoso Demais
TTITLE8=Medo de Voltar
TTITLE9=Espumas ao Vento
TTITLE10=Você e Eu
TTITLE11=Foi Por amor
TTITLE12=Amor Perdido
TTITLE13=Não Chegou ao Fim
TTITLE14=Porto Solidão
TTITLE15=Yolanda
TTITLE16=Sen Você
TTITLE17=Foi Deus Quem Fez Você
TTITLE18=Alguem Me Disse
TTITLE19=Última Canção
EXTD=
EXTT0=
EXTT1=
EXTT2=
EXTT3=
EXTT4=
EXTT5=
EXTT6=
EXTT7=
EXTT8=
EXTT9=
EXTT10=
EXTT11=
EXTT12=
EXTT13=
EXTT14=
EXTT15=
EXTT16=
EXTT17=
EXTT18=
EXTT19=
PLAYORDER=
